<?xml version="1.0" standalone="no"?>
<!DOCTYPE svg PUBLIC "-//W3C//DTD SVG 20010904//EN"
 "http://www.w3.org/TR/2001/REC-SVG-20010904/DTD/svg10.dtd">
<svg version="1.0" xmlns="http://www.w3.org/2000/svg"
 width="512.000000pt" height="512.000000pt" viewBox="0 0 512.000000 512.000000"
 preserveAspectRatio="xMidYMid meet">
<metadata>
Created by potrace 1.11, written by Peter Selinger 2001-2013
</metadata>
<g transform="translate(0.000000,512.000000) scale(0.100000,-0.100000)"
fill="#000000" stroke="none">
<path d="M2420 5109 c-705 -34 -1391 -383 -1842 -939 -305 -377 -505 -856
-558 -1335 -14 -129 -14 -421 0 -550 72 -661 414 -1288 930 -1707 303 -245
692 -433 1063 -513 153 -33 425 -65 552 -65 544 0 1092 185 1544 523 124 92
396 364 488 488 297 397 467 841 513 1334 15 165 12 298 -10 482 -40 329 -116
587 -250 858 -254 514 -651 911 -1165 1165 -394 196 -809 280 -1265 259z
m1430 -1944 c-54 -55 -483 -483 -952 -951 l-853 -852 -273 -63 -273 -63 -121
121 -120 121 62 273 63 274 951 952 951 953 332 -332 332 -332 -99 -101z"/>
</g>
</svg>
