<?xml version="1.0" standalone="no"?>
<!DOCTYPE svg PUBLIC "-//W3C//DTD SVG 20010904//EN"
 "http://www.w3.org/TR/2001/REC-SVG-20010904/DTD/svg10.dtd">
<svg version="1.0" xmlns="http://www.w3.org/2000/svg"
 width="160.000000pt" height="160.000000pt" viewBox="0 0 160.000000 160.000000"
 preserveAspectRatio="xMidYMid meet">
<metadata>
Created by potrace 1.11, written by Peter Selinger 2001-2013
</metadata>
<g transform="translate(0.000000,160.000000) scale(0.100000,-0.100000)"
fill="#000000" stroke="none">
<path d="M778 1523 c18 -2 45 -2 60 0 15 2 0 4 -33 4 -33 0 -45 -2 -27 -4z"/>
<path d="M1047 1471 c54 -28 153 -118 153 -140 0 -4 -13 -6 -28 -3 -31 4 -166
-19 -252 -43 -73 -21 -218 -22 -256 -2 -54 28 -104 97 -104 142 0 8 12 26 28
41 l27 27 -30 -18 c-16 -10 -38 -29 -48 -42 -10 -13 -25 -23 -33 -23 -26 0
-91 -70 -114 -122 -40 -93 -40 -301 1 -336 10 -9 19 -24 19 -34 0 -9 5 -20 10
-23 6 -4 10 11 10 38 0 30 10 63 29 99 15 30 30 61 33 69 4 11 9 12 32 1 l28
-13 -6 36 c-7 36 1 44 22 23 14 -14 14 -9 2 52 -5 25 -6 55 -3 67 5 22 7 21
52 -16 71 -60 119 -79 248 -100 65 -10 131 -24 146 -30 37 -14 37 -14 31 7 -3
9 8 2 26 -17 24 -25 34 -30 40 -21 10 16 65 -77 81 -135 24 -92 25 -94 33 -47
5 26 13 42 22 42 21 0 33 38 40 128 14 167 -56 303 -198 386 -24 13 -56 28
-73 31 -18 5 -6 -5 32 -24z m-538 -95 c16 -19 17 -88 1 -125 -12 -30 -53 -62
-97 -76 -21 -6 -23 -3 -23 37 0 52 29 119 66 153 31 29 37 30 53 11z"/>
<path d="M582 1060 c-19 -4 -39 -13 -45 -20 -10 -10 -7 -11 13 -6 14 4 49 10
78 13 28 3 52 9 52 14 0 11 -52 10 -98 -1z"/>
<path d="M950 1061 c0 -6 15 -11 34 -11 18 0 47 -5 65 -11 40 -14 54 -4 16 11
-46 18 -115 24 -115 11z"/>
<path d="M618 957 c8 -9 11 -21 7 -27 -10 -16 -33 -12 -38 8 -3 14 -6 12 -17
-10 -10 -22 -11 -34 -2 -53 6 -14 16 -25 22 -25 6 0 8 5 4 12 -4 7 -3 8 5 4
19 -12 59 2 66 24 4 11 11 18 16 15 13 -9 11 19 -3 38 -7 9 -26 19 -43 23 -27
7 -29 6 -17 -9z"/>
<path d="M1008 944 c4 -21 1 -25 -14 -22 -12 2 -18 11 -17 23 2 20 1 20 -13 1
-17 -24 -18 -68 -2 -84 14 -14 32 -16 24 -3 -3 4 5 6 18 4 16 -3 29 3 43 21
11 14 23 22 27 19 3 -3 6 -1 6 6 0 16 -46 61 -63 61 -10 0 -13 -8 -9 -26z"/>
<path d="M423 715 c0 -8 8 -15 18 -15 12 0 16 5 13 15 -4 8 -12 15 -18 15 -7
0 -13 -7 -13 -15z"/>
<path d="M1176 715 c-4 -10 1 -15 14 -15 11 0 20 7 20 15 0 8 -6 15 -14 15 -8
0 -16 -7 -20 -15z"/>
<path d="M1415 214 c26 -61 54 -153 55 -176 0 -17 6 -28 14 -28 11 0 12 8 5
40 -12 54 -59 169 -72 177 -7 4 -8 0 -2 -13z"/>
</g>
</svg>
